<svg width="24" height="24" viewBox="0 0 24 24" fill="none" xmlns="http://www.w3.org/2000/svg">
<path d="M9.15283 12.6402C9.07127 12.7196 9.009 12.8166 8.97757 12.9237L8.9549 13.08L8.88045 13.44L8.36015 18.12H5.31767C5.05813 18.12 4.85954 17.8709 4.89999 17.5948L6.95265 3.6385C7.00624 3.2705 7.30203 3 7.64878 3H12.5768C14.2744 3 15.6009 3.38434 16.3359 4.28207C17.0027 5.09753 17.2685 5.83343 17.0752 7.15607C17.0601 7.25976 17.0433 7.36576 17.0234 7.47466C16.3556 11.1529 14.0712 12.4243 11.1535 12.4243H9.66798C9.4783 12.4243 9.28877 12.5079 9.15283 12.6402Z" fill="white"/>
<path d="M17.7816 8.04C17.7669 8.14306 17.7502 8.24842 17.7313 8.35666C17.0837 12.0132 14.8681 13.2764 12.0384 13.2764H10.5976C10.2515 13.2764 9.95991 13.5527 9.90599 13.9281L8.95943 20.5313C8.92436 20.7778 9.09712 21 9.32329 21H11.8787C12.1813 21 12.4383 20.7582 12.486 20.43L12.5111 20.2872L12.9922 16.9295L13.0231 16.7453C13.0703 16.4159 13.3278 16.1741 13.6304 16.1741H14.0126C16.4884 16.1741 18.4266 15.0687 18.993 11.8699C19.2297 10.5335 19.1072 9.41776 18.481 8.63302C18.2915 8.39639 18.0564 8.20006 17.7816 8.04Z" fill="white"/>
</svg>
