<svg width="24" height="24" viewBox="0 0 24 24" fill="none" xmlns="http://www.w3.org/2000/svg">
<path d="M18.4128 7.79925C18.3007 7.90496 18.1543 7.96439 18.002 7.96609H3.57972C3.06788 7.96609 2.80933 7.36599 3.16368 7.0148L5.53262 4.67357C5.64272 4.5646 5.78908 4.50256 5.9421 4.5H20.4208C20.9379 4.5 21.1912 5.10549 20.8316 5.45802L18.4128 7.79925ZM18.4128 19.3385C18.2999 19.4423 18.1536 19.4998 18.002 19.5H3.57972C3.06788 19.5 2.80933 18.9053 3.16368 18.5541L5.53262 16.2061C5.64301 16.0984 5.78972 16.0387 5.9421 16.0393H20.4208C20.9379 16.0393 21.1912 16.6394 20.8316 16.9906L18.4128 19.3385ZM18.4128 10.4338C18.2999 10.33 18.1536 10.2726 18.002 10.2723H3.57972C3.06788 10.2723 2.80933 10.8671 3.16368 11.2182L5.53262 13.5662C5.64442 13.6716 5.79022 13.731 5.9421 13.733H20.4208C20.9379 13.733 21.1912 13.1329 20.8316 12.7818L18.4128 10.4338Z" fill="white"/>
</svg>
