<svg width="24" height="24" viewBox="0 0 24 24" fill="none" xmlns="http://www.w3.org/2000/svg">
<path d="M11.999 3.00098C16.9865 3.00103 20.999 7.01348 20.999 12.001C20.999 16.9885 16.9865 21.0009 11.999 21.001C7.01149 21.001 2.99902 16.9885 2.99902 12.001C2.99902 7.01345 7.01149 3.00098 11.999 3.00098ZM14.0615 5.66309C13.9115 5.58818 13.7611 5.66347 13.7236 5.81348C13.6863 5.85095 13.6865 5.88893 13.6865 5.96387V6.48828C13.6865 6.63818 13.7987 6.78816 13.9111 6.86328C16.8361 7.91322 18.3366 11.1759 17.249 14.0635C16.6865 15.6385 15.4486 16.8389 13.9111 17.4014C13.7614 17.4763 13.6865 17.589 13.6865 17.7764V18.3008C13.6865 18.4507 13.7613 18.5631 13.9111 18.6006C13.9487 18.6006 14.024 18.6009 14.0615 18.5635C17.6238 17.4385 19.5739 13.6512 18.4492 10.0889C17.7742 7.95137 16.124 6.33809 14.0615 5.66309ZM10.0869 5.62598C10.0495 5.62598 9.97413 5.62587 9.93652 5.66309C6.37405 6.78809 4.42383 10.5762 5.54883 14.1387C6.22386 16.2386 7.83661 17.8514 9.93652 18.5264C10.0864 18.6011 10.236 18.5258 10.2734 18.376C10.311 18.3385 10.3115 18.3006 10.3115 18.2256V17.7012C10.3115 17.5888 10.1993 17.4384 10.0869 17.3633C7.16191 16.3133 5.66146 13.0506 6.74902 10.1631C7.31158 8.58824 8.54955 7.38863 10.0869 6.82617C10.2367 6.75124 10.3115 6.63845 10.3115 6.45117V5.92578C10.3115 5.77599 10.2366 5.66352 10.0869 5.62598ZM11.6992 7.57617C11.5492 7.57617 11.436 7.68842 11.3984 7.87598V8.73828C10.2737 8.88845 9.56152 9.63876 9.56152 10.5762C9.5616 11.8135 10.3118 12.3007 11.8867 12.4883C12.9366 12.6757 13.2744 12.901 13.2744 13.501C13.2744 14.101 12.7486 14.5137 12.0361 14.5137C11.0613 14.5136 10.7238 14.1005 10.6113 13.5381C10.5738 13.3884 10.4611 13.3135 10.3486 13.3135H9.71094C9.56123 13.3137 9.44922 13.4263 9.44922 13.5762V13.6133C9.59916 14.5507 10.199 15.2255 11.4365 15.4131V16.3135C11.4365 16.4634 11.5489 16.5757 11.7363 16.6133H12.2988C12.4488 16.6133 12.5611 16.5009 12.5986 16.3135V15.4131C13.7236 15.2255 14.4736 14.4383 14.4736 13.4258C14.4736 12.1134 13.6863 11.663 12.1113 11.4756C10.9865 11.3256 10.7617 11.026 10.7617 10.501C10.7617 9.97592 11.1367 9.63867 11.8867 9.63867C12.5615 9.63874 12.9366 9.86345 13.124 10.4258C13.1616 10.5383 13.2742 10.6133 13.3867 10.6133H13.9863C14.1364 10.6133 14.249 10.5005 14.249 10.3506V10.3135C14.099 9.48849 13.4239 8.85139 12.5615 8.77637V7.87598C12.5615 7.72603 12.449 7.61376 12.2617 7.57617H11.6992Z" fill="white"/>
</svg>
